<svg xmlns="http://www.w3.org/2000/svg" viewBox="0 0 400 400">
    <!-- Background -->
    <rect width="400" height="400" fill="#f0f4f8"/>
    
    <!-- Robot Body -->
    <!-- Head with AI brain -->
    <rect x="150" y="80" width="100" height="80" rx="10" fill="#ff7f00"/>
    <circle cx="180" cy="110" r="15" fill="#fff"/>
    <circle cx="220" cy="110" r="15" fill="#fff"/>
    <path d="M175 140 Q200 160 225 140" stroke="#fff" fill="none" stroke-width="4"/>
    
    <!-- Brain circuits -->
    <path d="M160 85 L180 85 L190 95 L170 95 Z" fill="#ffd700"/>
    <path d="M210 85 L230 85 L220 95 L200 95 Z" fill="#ffd700"/>
    
    <!-- Antenna -->
    <line x1="200" y1="60" x2="200" y2="80" stroke="#ff7f00" stroke-width="6"/>
    <circle cx="200" cy="55" r="8" fill="#ffd700"/>
    
    <!-- Body -->
    <rect x="140" y="170" width="120" height="100" rx="10" fill="#ff7f00"/>
    
    <!-- Matrix display on chest -->
    <rect x="170" y="190" width="60" height="40" rx="5" fill="#fff"/>
    <text x="180" y="215" font-family="monospace" font-size="12" fill="#ff7f00">AI</text>
    
    <!-- Arms -->
    <rect x="90" y="180" width="50" height="20" rx="10" fill="#ff7f00"/>
    <rect x="260" y="180" width="50" height="20" rx="10" fill="#ff7f00"/>
    
    <!-- Hands -->
    <circle cx="90" cy="190" r="15" fill="#ffd700"/>
    <circle cx="310" cy="190" r="15" fill="#ffd700"/>
    
    <!-- Legs -->
    <rect x="160" y="270" width="30" height="80" rx="10" fill="#ff7f00"/>
    <rect x="210" y="270" width="30" height="80" rx="10" fill="#ff7f00"/>
    
    <!-- Feet -->
    <rect x="150" y="350" width="50" height="20" rx="10" fill="#ffd700"/>
    <rect x="200" y="350" width="50" height="20" rx="10" fill="#ffd700"/>
    
    <!-- Binary/Data streams -->
    <text x="50" y="150" font-family="monospace" font-size="14" fill="#ff7f00" transform="rotate(-30 50,150)">10101</text>
    <text x="320" y="150" font-family="monospace" font-size="14" fill="#ff7f00" transform="rotate(30 320,150)">01010</text>
    
    <!-- Neural network connections -->
    <line x1="140" y1="100" x2="120" y2="120" stroke="#ffd700" stroke-width="2"/>
    <line x1="260" y1="100" x2="280" y2="120" stroke="#ffd700" stroke-width="2"/>
</svg>